<svg width="635" height="315" viewBox="0 0 635 315" fill="none" xmlns="http://www.w3.org/2000/svg">
<g clip-path="url(#clip0_1_2)">
<path d="M119 229H74C71.6131 229 69.3239 228.052 67.636 226.364C65.9482 224.676 65 222.387 65 220C65 202 95.402 175.837 101 166C92 166 65 161.5 65 148C65 130 101 116.5 119 112C119 98.5 123.5 76 146 76C168.5 76 173 98.5 173 112C191 116.5 227 130 227 148C227 161.5 200 166 191 166C196.598 175.837 227 202 227 220C227 222.387 226.052 224.676 224.364 226.364C222.676 228.052 220.387 229 218 229H173C164 229 155 193 146 193C137 193 128 229 119 229Z" stroke="#5D87FF" stroke-width="21" stroke-linecap="round" stroke-linejoin="round"/>
</g>
<path d="M265.392 141.727V120.727H270.841V123.392H270.96C271.159 122.875 271.451 122.401 271.835 121.97C272.22 121.533 272.697 121.185 273.267 120.926C273.837 120.661 274.5 120.528 275.256 120.528C276.263 120.528 277.221 120.797 278.129 121.334C279.044 121.871 279.786 122.716 280.357 123.869C280.933 125.023 281.222 126.521 281.222 128.364C281.222 130.127 280.946 131.589 280.396 132.749C279.853 133.909 279.124 134.774 278.209 135.344C277.301 135.914 276.303 136.199 275.216 136.199C274.5 136.199 273.86 136.083 273.297 135.851C272.74 135.612 272.263 135.291 271.865 134.886C271.474 134.475 271.172 134.011 270.96 133.494H270.881V141.727H265.392ZM270.761 128.364C270.761 129.106 270.857 129.749 271.05 130.293C271.249 130.83 271.527 131.247 271.885 131.545C272.25 131.837 272.684 131.983 273.188 131.983C273.691 131.983 274.119 131.84 274.47 131.555C274.828 131.264 275.1 130.849 275.286 130.312C275.478 129.769 275.574 129.119 275.574 128.364C275.574 127.608 275.478 126.962 275.286 126.425C275.1 125.881 274.828 125.467 274.47 125.182C274.119 124.89 273.691 124.744 273.188 124.744C272.684 124.744 272.25 124.89 271.885 125.182C271.527 125.467 271.249 125.881 271.05 126.425C270.857 126.962 270.761 127.608 270.761 128.364ZM290.839 136.278C289.208 136.278 287.803 135.967 286.623 135.344C285.45 134.714 284.545 133.812 283.909 132.639C283.279 131.459 282.964 130.047 282.964 128.403C282.964 126.826 283.282 125.447 283.919 124.267C284.555 123.087 285.453 122.169 286.613 121.513C287.773 120.857 289.142 120.528 290.72 120.528C291.873 120.528 292.917 120.707 293.852 121.065C294.787 121.423 295.585 121.944 296.248 122.626C296.911 123.303 297.422 124.125 297.779 125.092C298.137 126.06 298.316 127.151 298.316 128.364V129.636H284.674V126.614H293.265C293.259 126.176 293.146 125.792 292.927 125.46C292.715 125.122 292.427 124.86 292.062 124.675C291.704 124.482 291.297 124.386 290.839 124.386C290.395 124.386 289.987 124.482 289.616 124.675C289.245 124.86 288.947 125.119 288.721 125.45C288.502 125.782 288.386 126.17 288.373 126.614V129.875C288.373 130.366 288.476 130.803 288.681 131.188C288.887 131.572 289.182 131.874 289.566 132.092C289.951 132.311 290.415 132.42 290.958 132.42C291.336 132.42 291.681 132.367 291.993 132.261C292.311 132.155 292.583 132.003 292.808 131.804C293.033 131.598 293.199 131.353 293.305 131.068H298.316C298.144 132.129 297.736 133.05 297.093 133.832C296.45 134.608 295.599 135.211 294.538 135.642C293.484 136.066 292.251 136.278 290.839 136.278ZM306.045 115.636V136H300.556V115.636H306.045ZM313.097 136.239C312.123 136.239 311.261 136.08 310.512 135.761C309.769 135.437 309.186 134.946 308.762 134.29C308.337 133.634 308.125 132.798 308.125 131.784C308.125 130.949 308.268 130.236 308.553 129.646C308.838 129.05 309.236 128.562 309.746 128.185C310.257 127.807 310.85 127.518 311.526 127.32C312.209 127.121 312.944 126.991 313.733 126.932C314.588 126.866 315.275 126.786 315.792 126.693C316.315 126.594 316.693 126.458 316.925 126.286C317.157 126.107 317.273 125.871 317.273 125.58V125.54C317.273 125.142 317.121 124.837 316.816 124.625C316.511 124.413 316.12 124.307 315.642 124.307C315.119 124.307 314.691 124.423 314.36 124.655C314.035 124.88 313.839 125.228 313.773 125.699H308.722C308.788 124.771 309.083 123.916 309.607 123.134C310.137 122.345 310.909 121.715 311.924 121.244C312.938 120.767 314.204 120.528 315.722 120.528C316.816 120.528 317.797 120.658 318.665 120.916C319.533 121.168 320.273 121.523 320.882 121.98C321.492 122.431 321.956 122.961 322.275 123.571C322.599 124.174 322.762 124.83 322.762 125.54V136H317.631V133.852H317.512C317.207 134.422 316.836 134.883 316.398 135.234C315.967 135.586 315.473 135.841 314.917 136C314.366 136.159 313.76 136.239 313.097 136.239ZM314.887 132.778C315.304 132.778 315.695 132.692 316.06 132.52C316.431 132.348 316.733 132.099 316.965 131.774C317.197 131.449 317.313 131.055 317.313 130.591V129.318C317.167 129.378 317.011 129.434 316.846 129.487C316.686 129.54 316.514 129.59 316.328 129.636C316.15 129.683 315.957 129.726 315.752 129.766C315.553 129.805 315.344 129.842 315.125 129.875C314.701 129.941 314.353 130.051 314.081 130.203C313.816 130.349 313.617 130.531 313.485 130.75C313.359 130.962 313.296 131.201 313.296 131.466C313.296 131.89 313.445 132.215 313.743 132.44C314.042 132.666 314.423 132.778 314.887 132.778ZM325.384 141.727V120.727H330.833V123.392H330.952C331.151 122.875 331.443 122.401 331.827 121.97C332.212 121.533 332.689 121.185 333.259 120.926C333.829 120.661 334.492 120.528 335.248 120.528C336.255 120.528 337.213 120.797 338.121 121.334C339.036 121.871 339.779 122.716 340.349 123.869C340.925 125.023 341.214 126.521 341.214 128.364C341.214 130.127 340.939 131.589 340.388 132.749C339.845 133.909 339.116 134.774 338.201 135.344C337.293 135.914 336.295 136.199 335.208 136.199C334.492 136.199 333.853 136.083 333.289 135.851C332.732 135.612 332.255 135.291 331.857 134.886C331.466 134.475 331.165 134.011 330.952 133.494H330.873V141.727H325.384ZM330.754 128.364C330.754 129.106 330.85 129.749 331.042 130.293C331.241 130.83 331.519 131.247 331.877 131.545C332.242 131.837 332.676 131.983 333.18 131.983C333.683 131.983 334.111 131.84 334.462 131.555C334.82 131.264 335.092 130.849 335.278 130.312C335.47 129.769 335.566 129.119 335.566 128.364C335.566 127.608 335.47 126.962 335.278 126.425C335.092 125.881 334.82 125.467 334.462 125.182C334.111 124.89 333.683 124.744 333.18 124.744C332.676 124.744 332.242 124.89 331.877 125.182C331.519 125.467 331.241 125.881 331.042 126.425C330.85 126.962 330.754 127.608 330.754 128.364ZM350.871 136.278C349.214 136.278 347.795 135.95 346.615 135.294C345.435 134.631 344.531 133.71 343.901 132.53C343.271 131.343 342.956 129.968 342.956 128.403C342.956 126.839 343.271 125.467 343.901 124.287C344.531 123.1 345.435 122.179 346.615 121.523C347.795 120.86 349.214 120.528 350.871 120.528C352.528 120.528 353.947 120.86 355.127 121.523C356.307 122.179 357.212 123.1 357.841 124.287C358.471 125.467 358.786 126.839 358.786 128.403C358.786 129.968 358.471 131.343 357.841 132.53C357.212 133.71 356.307 134.631 355.127 135.294C353.947 135.95 352.528 136.278 350.871 136.278ZM350.911 132.222C351.375 132.222 351.776 132.066 352.114 131.754C352.452 131.443 352.714 130.999 352.9 130.422C353.085 129.845 353.178 129.159 353.178 128.364C353.178 127.562 353.085 126.875 352.9 126.305C352.714 125.729 352.452 125.285 352.114 124.973C351.776 124.661 351.375 124.506 350.911 124.506C350.42 124.506 349.999 124.661 349.648 124.973C349.297 125.285 349.028 125.729 348.843 126.305C348.657 126.875 348.564 127.562 348.564 128.364C348.564 129.159 348.657 129.845 348.843 130.422C349.028 130.999 349.297 131.443 349.648 131.754C349.999 132.066 350.42 132.222 350.911 132.222ZM361.013 136V120.727H366.343V123.631H366.502C366.78 122.557 367.221 121.771 367.824 121.274C368.434 120.777 369.147 120.528 369.962 120.528C370.201 120.528 370.436 120.548 370.668 120.588C370.907 120.621 371.135 120.671 371.354 120.737V125.42C371.082 125.328 370.748 125.258 370.35 125.212C369.952 125.165 369.611 125.142 369.326 125.142C368.789 125.142 368.305 125.265 367.874 125.51C367.45 125.749 367.115 126.087 366.87 126.524C366.624 126.955 366.502 127.462 366.502 128.045V136H361.013ZM376.699 136.239C375.724 136.239 374.862 136.08 374.113 135.761C373.371 135.437 372.788 134.946 372.363 134.29C371.939 133.634 371.727 132.798 371.727 131.784C371.727 130.949 371.869 130.236 372.154 129.646C372.44 129.05 372.837 128.562 373.348 128.185C373.858 127.807 374.451 127.518 375.127 127.32C375.81 127.121 376.546 126.991 377.335 126.932C378.19 126.866 378.876 126.786 379.393 126.693C379.917 126.594 380.295 126.458 380.527 126.286C380.759 126.107 380.875 125.871 380.875 125.58V125.54C380.875 125.142 380.722 124.837 380.417 124.625C380.112 124.413 379.721 124.307 379.244 124.307C378.72 124.307 378.293 124.423 377.961 124.655C377.636 124.88 377.441 125.228 377.375 125.699H372.324C372.39 124.771 372.685 123.916 373.208 123.134C373.739 122.345 374.511 121.715 375.525 121.244C376.539 120.767 377.806 120.528 379.324 120.528C380.417 120.528 381.398 120.658 382.267 120.916C383.135 121.168 383.874 121.523 384.484 121.98C385.094 122.431 385.558 122.961 385.876 123.571C386.201 124.174 386.363 124.83 386.363 125.54V136H381.233V133.852H381.113C380.808 134.422 380.437 134.883 380 135.234C379.569 135.586 379.075 135.841 378.518 136C377.968 136.159 377.361 136.239 376.699 136.239ZM378.488 132.778C378.906 132.778 379.297 132.692 379.662 132.52C380.033 132.348 380.334 132.099 380.566 131.774C380.798 131.449 380.914 131.055 380.914 130.591V129.318C380.769 129.378 380.613 129.434 380.447 129.487C380.288 129.54 380.116 129.59 379.93 129.636C379.751 129.683 379.559 129.726 379.353 129.766C379.154 129.805 378.946 129.842 378.727 129.875C378.303 129.941 377.955 130.051 377.683 130.203C377.418 130.349 377.219 130.531 377.086 130.75C376.96 130.962 376.897 131.201 376.897 131.466C376.897 131.89 377.047 132.215 377.345 132.44C377.643 132.666 378.024 132.778 378.488 132.778ZM394.474 127.409V136H388.986V120.727H394.196V123.631H394.355C394.687 122.663 395.27 121.904 396.105 121.354C396.947 120.804 397.928 120.528 399.048 120.528C400.129 120.528 401.067 120.777 401.862 121.274C402.664 121.765 403.284 122.441 403.722 123.303C404.166 124.164 404.384 125.149 404.378 126.256V136H398.889V127.409C398.896 126.653 398.704 126.06 398.312 125.629C397.928 125.198 397.391 124.983 396.702 124.983C396.251 124.983 395.857 125.082 395.518 125.281C395.187 125.473 394.932 125.752 394.753 126.116C394.574 126.474 394.481 126.905 394.474 127.409ZM419.228 136.318C417.77 136.318 416.513 136.06 415.46 135.543C414.406 135.026 413.597 134.333 413.033 133.464C412.47 132.596 412.188 131.638 412.188 130.591C412.188 129.829 412.334 129.156 412.626 128.572C412.917 127.982 413.325 127.442 413.849 126.952C414.372 126.461 414.986 125.977 415.688 125.5L420.302 122.636C420.766 122.345 421.081 122.043 421.246 121.732C421.412 121.413 421.495 121.132 421.495 120.886C421.495 120.562 421.376 120.273 421.137 120.021C420.898 119.769 420.527 119.647 420.023 119.653C419.712 119.653 419.443 119.713 419.218 119.832C418.993 119.945 418.817 120.104 418.691 120.31C418.572 120.515 418.512 120.76 418.512 121.045C418.512 121.437 418.625 121.838 418.85 122.249C419.076 122.653 419.384 123.09 419.775 123.561C420.166 124.032 420.607 124.559 421.097 125.142L430.961 136H425.472L417.2 127.25C416.795 126.819 416.348 126.292 415.857 125.669C415.367 125.039 414.942 124.33 414.585 123.541C414.233 122.752 414.058 121.894 414.058 120.966C414.058 119.932 414.306 118.987 414.803 118.132C415.3 117.277 415.996 116.594 416.891 116.084C417.786 115.573 418.83 115.318 420.023 115.318C421.164 115.318 422.145 115.554 422.967 116.024C423.795 116.495 424.432 117.121 424.876 117.903C425.326 118.686 425.552 119.547 425.552 120.489C425.552 121.437 425.317 122.321 424.846 123.143C424.382 123.965 423.716 124.685 422.847 125.301L418.631 128.284C418.307 128.509 418.025 128.768 417.786 129.06C417.554 129.351 417.438 129.729 417.438 130.193C417.438 130.578 417.528 130.906 417.707 131.178C417.886 131.449 418.138 131.658 418.462 131.804C418.794 131.95 419.182 132.023 419.626 132.023C420.302 132.023 420.978 131.86 421.654 131.536C422.337 131.204 422.96 130.743 423.523 130.153C424.087 129.557 424.538 128.854 424.876 128.045C425.22 127.23 425.393 126.342 425.393 125.381H429.728C429.728 126.561 429.605 127.697 429.36 128.791C429.115 129.885 428.72 130.886 428.177 131.794C427.633 132.702 426.917 133.468 426.029 134.091C425.751 134.23 425.479 134.363 425.214 134.489C424.949 134.615 424.677 134.747 424.398 134.886C423.583 135.41 422.731 135.781 421.843 136C420.955 136.212 420.083 136.318 419.228 136.318ZM437.767 141.727V120.727H443.216V123.392H443.335C443.534 122.875 443.826 122.401 444.21 121.97C444.595 121.533 445.072 121.185 445.642 120.926C446.212 120.661 446.875 120.528 447.631 120.528C448.638 120.528 449.596 120.797 450.504 121.334C451.419 121.871 452.161 122.716 452.732 123.869C453.308 125.023 453.597 126.521 453.597 128.364C453.597 130.127 453.321 131.589 452.771 132.749C452.228 133.909 451.499 134.774 450.584 135.344C449.676 135.914 448.678 136.199 447.591 136.199C446.875 136.199 446.235 136.083 445.672 135.851C445.115 135.612 444.638 135.291 444.24 134.886C443.849 134.475 443.547 134.011 443.335 133.494H443.256V141.727H437.767ZM443.136 128.364C443.136 129.106 443.232 129.749 443.425 130.293C443.624 130.83 443.902 131.247 444.26 131.545C444.625 131.837 445.059 131.983 445.562 131.983C446.066 131.983 446.494 131.84 446.845 131.555C447.203 131.264 447.475 130.849 447.661 130.312C447.853 129.769 447.949 129.119 447.949 128.364C447.949 127.608 447.853 126.962 447.661 126.425C447.475 125.881 447.203 125.467 446.845 125.182C446.494 124.89 446.066 124.744 445.562 124.744C445.059 124.744 444.625 124.89 444.26 125.182C443.902 125.467 443.624 125.881 443.425 126.425C443.232 126.962 443.136 127.608 443.136 128.364ZM463.214 136.278C461.583 136.278 460.178 135.967 458.998 135.344C457.825 134.714 456.92 133.812 456.284 132.639C455.654 131.459 455.339 130.047 455.339 128.403C455.339 126.826 455.657 125.447 456.294 124.267C456.93 123.087 457.828 122.169 458.988 121.513C460.148 120.857 461.517 120.528 463.095 120.528C464.248 120.528 465.292 120.707 466.227 121.065C467.162 121.423 467.96 121.944 468.623 122.626C469.286 123.303 469.797 124.125 470.154 125.092C470.512 126.06 470.691 127.151 470.691 128.364V129.636H457.049V126.614H465.64C465.634 126.176 465.521 125.792 465.302 125.46C465.09 125.122 464.802 124.86 464.437 124.675C464.079 124.482 463.672 124.386 463.214 124.386C462.77 124.386 462.362 124.482 461.991 124.675C461.62 124.86 461.322 125.119 461.096 125.45C460.877 125.782 460.761 126.17 460.748 126.614V129.875C460.748 130.366 460.851 130.803 461.056 131.188C461.262 131.572 461.557 131.874 461.941 132.092C462.326 132.311 462.79 132.42 463.333 132.42C463.711 132.42 464.056 132.367 464.368 132.261C464.686 132.155 464.958 132.003 465.183 131.804C465.408 131.598 465.574 131.353 465.68 131.068H470.691C470.519 132.129 470.111 133.05 469.468 133.832C468.825 134.608 467.974 135.211 466.913 135.642C465.859 136.066 464.626 136.278 463.214 136.278ZM478.42 127.409V136H472.931V120.727H478.141V123.631H478.3C478.632 122.663 479.215 121.904 480.05 121.354C480.892 120.804 481.873 120.528 482.994 120.528C484.074 120.528 485.012 120.777 485.808 121.274C486.61 121.765 487.229 122.441 487.667 123.303C488.111 124.164 488.33 125.149 488.323 126.256V136H482.835V127.409C482.841 126.653 482.649 126.06 482.258 125.629C481.873 125.198 481.336 124.983 480.647 124.983C480.196 124.983 479.802 125.082 479.464 125.281C479.132 125.473 478.877 125.752 478.698 126.116C478.519 126.474 478.426 126.905 478.42 127.409ZM498.391 142.045C496.859 142.045 495.547 141.827 494.453 141.389C493.366 140.958 492.521 140.362 491.918 139.599C491.321 138.844 490.986 137.975 490.913 136.994H496.203C496.256 137.319 496.389 137.581 496.601 137.78C496.813 137.979 497.085 138.121 497.416 138.207C497.754 138.3 498.132 138.347 498.55 138.347C499.259 138.347 499.846 138.174 500.31 137.83C500.78 137.485 501.016 136.862 501.016 135.96V133.375H500.857C500.658 133.892 500.353 134.333 499.942 134.697C499.531 135.055 499.037 135.33 498.46 135.523C497.884 135.708 497.25 135.801 496.561 135.801C495.474 135.801 494.473 135.549 493.558 135.045C492.65 134.542 491.921 133.743 491.371 132.649C490.827 131.555 490.555 130.127 490.555 128.364C490.555 126.521 490.84 125.023 491.411 123.869C491.987 122.716 492.73 121.871 493.638 121.334C494.553 120.797 495.514 120.528 496.521 120.528C497.277 120.528 497.94 120.661 498.51 120.926C499.08 121.185 499.557 121.533 499.942 121.97C500.326 122.401 500.618 122.875 500.817 123.392H500.936V120.727H506.425V135.96C506.425 137.253 506.09 138.35 505.42 139.251C504.758 140.16 503.823 140.852 502.616 141.33C501.41 141.807 500.001 142.045 498.391 142.045ZM498.589 131.903C499.093 131.903 499.524 131.764 499.882 131.486C500.247 131.201 500.525 130.796 500.717 130.273C500.916 129.742 501.016 129.106 501.016 128.364C501.016 127.608 500.916 126.962 500.717 126.425C500.525 125.881 500.247 125.467 499.882 125.182C499.524 124.89 499.093 124.744 498.589 124.744C498.086 124.744 497.655 124.89 497.297 125.182C496.946 125.467 496.674 125.881 496.482 126.425C496.296 126.962 496.203 127.608 496.203 128.364C496.203 129.119 496.296 129.762 496.482 130.293C496.674 130.816 496.946 131.217 497.297 131.496C497.655 131.768 498.086 131.903 498.589 131.903ZM513.472 136.239C512.498 136.239 511.636 136.08 510.887 135.761C510.144 135.437 509.561 134.946 509.137 134.29C508.712 133.634 508.5 132.798 508.5 131.784C508.5 130.949 508.643 130.236 508.928 129.646C509.213 129.05 509.611 128.562 510.121 128.185C510.632 127.807 511.225 127.518 511.901 127.32C512.584 127.121 513.319 126.991 514.108 126.932C514.963 126.866 515.65 126.786 516.167 126.693C516.69 126.594 517.068 126.458 517.3 126.286C517.532 126.107 517.648 125.871 517.648 125.58V125.54C517.648 125.142 517.496 124.837 517.191 124.625C516.886 124.413 516.495 124.307 516.017 124.307C515.494 124.307 515.066 124.423 514.735 124.655C514.41 124.88 514.214 125.228 514.148 125.699H509.097C509.163 124.771 509.458 123.916 509.982 123.134C510.512 122.345 511.284 121.715 512.299 121.244C513.313 120.767 514.579 120.528 516.097 120.528C517.191 120.528 518.172 120.658 519.04 120.916C519.908 121.168 520.648 121.523 521.257 121.98C521.867 122.431 522.331 122.961 522.65 123.571C522.974 124.174 523.137 124.83 523.137 125.54V136H518.006V133.852H517.887C517.582 134.422 517.211 134.883 516.773 135.234C516.342 135.586 515.848 135.841 515.292 136C514.741 136.159 514.135 136.239 513.472 136.239ZM515.262 132.778C515.679 132.778 516.07 132.692 516.435 132.52C516.806 132.348 517.108 132.099 517.34 131.774C517.572 131.449 517.688 131.055 517.688 130.591V129.318C517.542 129.378 517.386 129.434 517.221 129.487C517.061 129.54 516.889 129.59 516.703 129.636C516.525 129.683 516.332 129.726 516.127 129.766C515.928 129.805 515.719 129.842 515.5 129.875C515.076 129.941 514.728 130.051 514.456 130.203C514.191 130.349 513.992 130.531 513.86 130.75C513.734 130.962 513.671 131.201 513.671 131.466C513.671 131.89 513.82 132.215 514.118 132.44C514.417 132.666 514.798 132.778 515.262 132.778ZM531.288 136.199C530.201 136.199 529.2 135.914 528.285 135.344C527.377 134.774 526.647 133.909 526.097 132.749C525.554 131.589 525.282 130.127 525.282 128.364C525.282 126.521 525.567 125.023 526.137 123.869C526.714 122.716 527.456 121.871 528.364 121.334C529.279 120.797 530.24 120.528 531.248 120.528C532.004 120.528 532.666 120.661 533.237 120.926C533.807 121.185 534.284 121.533 534.668 121.97C535.053 122.401 535.344 122.875 535.543 123.392H535.623V115.636H541.112V136H535.663V133.494H535.543C535.331 134.011 535.026 134.475 534.629 134.886C534.237 135.291 533.76 135.612 533.197 135.851C532.64 136.083 532.004 136.199 531.288 136.199ZM533.316 131.983C533.82 131.983 534.251 131.837 534.609 131.545C534.973 131.247 535.252 130.83 535.444 130.293C535.643 129.749 535.742 129.106 535.742 128.364C535.742 127.608 535.643 126.962 535.444 126.425C535.252 125.881 534.973 125.467 534.609 125.182C534.251 124.89 533.82 124.744 533.316 124.744C532.812 124.744 532.381 124.89 532.023 125.182C531.672 125.467 531.4 125.881 531.208 126.425C531.022 126.962 530.93 127.608 530.93 128.364C530.93 129.119 531.022 129.769 531.208 130.312C531.4 130.849 531.672 131.264 532.023 131.555C532.381 131.84 532.812 131.983 533.316 131.983ZM553.71 129.318V120.727H559.198V136H553.988V133.097H553.829C553.497 134.071 552.917 134.833 552.089 135.384C551.26 135.927 550.276 136.199 549.136 136.199C548.068 136.199 547.134 135.954 546.332 135.463C545.536 134.973 544.916 134.296 544.472 133.435C544.035 132.573 543.813 131.585 543.806 130.472V120.727H549.295V129.318C549.301 130.074 549.494 130.667 549.871 131.098C550.256 131.529 550.793 131.744 551.482 131.744C551.94 131.744 552.334 131.648 552.665 131.456C553.004 131.257 553.262 130.979 553.441 130.621C553.627 130.256 553.716 129.822 553.71 129.318ZM566.245 136.239C565.271 136.239 564.409 136.08 563.66 135.761C562.918 135.437 562.334 134.946 561.91 134.29C561.486 133.634 561.274 132.798 561.274 131.784C561.274 130.949 561.416 130.236 561.701 129.646C561.986 129.05 562.384 128.562 562.895 128.185C563.405 127.807 563.998 127.518 564.674 127.32C565.357 127.121 566.093 126.991 566.882 126.932C567.737 126.866 568.423 126.786 568.94 126.693C569.464 126.594 569.842 126.458 570.074 126.286C570.306 126.107 570.422 125.871 570.422 125.58V125.54C570.422 125.142 570.269 124.837 569.964 124.625C569.659 124.413 569.268 124.307 568.791 124.307C568.267 124.307 567.84 124.423 567.508 124.655C567.183 124.88 566.988 125.228 566.922 125.699H561.87C561.937 124.771 562.232 123.916 562.755 123.134C563.286 122.345 564.058 121.715 565.072 121.244C566.086 120.767 567.352 120.528 568.87 120.528C569.964 120.528 570.945 120.658 571.814 120.916C572.682 121.168 573.421 121.523 574.031 121.98C574.641 122.431 575.105 122.961 575.423 123.571C575.748 124.174 575.91 124.83 575.91 125.54V136H570.779V133.852H570.66C570.355 134.422 569.984 134.883 569.547 135.234C569.116 135.586 568.622 135.841 568.065 136C567.515 136.159 566.908 136.239 566.245 136.239ZM568.035 132.778C568.453 132.778 568.844 132.692 569.208 132.52C569.58 132.348 569.881 132.099 570.113 131.774C570.345 131.449 570.461 131.055 570.461 130.591V129.318C570.315 129.378 570.16 129.434 569.994 129.487C569.835 129.54 569.663 129.59 569.477 129.636C569.298 129.683 569.106 129.726 568.9 129.766C568.701 129.805 568.493 129.842 568.274 129.875C567.85 129.941 567.502 130.051 567.23 130.203C566.965 130.349 566.766 130.531 566.633 130.75C566.507 130.962 566.444 131.201 566.444 131.466C566.444 131.89 566.593 132.215 566.892 132.44C567.19 132.666 567.571 132.778 568.035 132.778ZM584.021 127.409V136H578.533V120.727H583.743V123.631H583.902C584.233 122.663 584.817 121.904 585.652 121.354C586.494 120.804 587.475 120.528 588.595 120.528C589.676 120.528 590.614 120.777 591.409 121.274C592.211 121.765 592.831 122.441 593.268 123.303C593.713 124.164 593.931 125.149 593.925 126.256V136H588.436V127.409C588.443 126.653 588.25 126.06 587.859 125.629C587.475 125.198 586.938 124.983 586.249 124.983C585.798 124.983 585.403 125.082 585.065 125.281C584.734 125.473 584.479 125.752 584.3 126.116C584.121 126.474 584.028 126.905 584.021 127.409Z" fill="#5D87FF"/>
<path d="M266.109 153.273H277.168L284.774 171.81H285.158L292.764 153.273H303.822V186H295.129V167.08H294.874L287.587 185.744H282.345L275.058 166.952H274.803V186H266.109V153.273ZM316.535 186H306.947L317.749 153.273H329.894L340.697 186H331.108L323.949 162.286H323.694L316.535 186ZM314.745 173.088H332.77V179.736H314.745V173.088ZM360.216 163.5C360.131 162.435 359.732 161.604 359.018 161.007C358.315 160.411 357.244 160.112 355.806 160.112C354.89 160.112 354.138 160.224 353.553 160.448C352.977 160.661 352.551 160.954 352.274 161.327C351.997 161.7 351.853 162.126 351.843 162.605C351.821 162.999 351.891 163.356 352.05 163.676C352.221 163.985 352.487 164.267 352.849 164.523C353.212 164.768 353.675 164.991 354.24 165.194C354.804 165.396 355.475 165.577 356.253 165.737L358.938 166.312C360.749 166.696 362.299 167.202 363.588 167.831C364.877 168.459 365.932 169.2 366.752 170.052C367.572 170.893 368.174 171.842 368.558 172.896C368.952 173.951 369.154 175.102 369.165 176.348C369.154 178.5 368.616 180.322 367.551 181.813C366.486 183.305 364.962 184.439 362.981 185.217C361.01 185.995 358.64 186.384 355.87 186.384C353.025 186.384 350.543 185.963 348.423 185.121C346.314 184.279 344.673 182.985 343.501 181.238C342.34 179.48 341.754 177.232 341.743 174.494H350.181C350.234 175.496 350.484 176.337 350.932 177.019C351.379 177.701 352.008 178.218 352.817 178.569C353.638 178.921 354.613 179.097 355.742 179.097C356.69 179.097 357.484 178.979 358.123 178.745C358.762 178.511 359.247 178.186 359.577 177.77C359.907 177.355 360.078 176.881 360.088 176.348C360.078 175.847 359.913 175.411 359.593 175.038C359.284 174.654 358.773 174.313 358.059 174.015C357.345 173.706 356.381 173.418 355.167 173.152L351.907 172.449C349.009 171.82 346.724 170.771 345.051 169.301C343.389 167.82 342.564 165.801 342.574 163.244C342.564 161.167 343.118 159.35 344.236 157.795C345.365 156.229 346.926 155.009 348.918 154.136C350.921 153.262 353.217 152.825 355.806 152.825C358.448 152.825 360.733 153.267 362.661 154.152C364.589 155.036 366.076 156.282 367.12 157.891C368.174 159.489 368.707 161.359 368.718 163.5H360.216ZM371.203 153.273H381.11L387.502 166.568H387.758L394.15 153.273H404.058L392.041 175.709V186H383.22V175.709L371.203 153.273ZM412.116 186H402.528L413.33 153.273H425.475L436.278 186H426.69L419.53 162.286H419.275L412.116 186ZM410.326 173.088H428.351V179.736H410.326V173.088ZM439.43 186V153.273H453.556C455.985 153.273 458.11 153.715 459.932 154.599C461.754 155.483 463.171 156.756 464.183 158.418C465.195 160.08 465.701 162.072 465.701 164.395C465.701 166.739 465.179 168.715 464.135 170.324C463.102 171.932 461.647 173.147 459.772 173.967C457.908 174.787 455.729 175.197 453.237 175.197H444.799V168.294H451.447C452.491 168.294 453.38 168.166 454.115 167.911C454.861 167.644 455.431 167.223 455.825 166.648C456.23 166.073 456.433 165.322 456.433 164.395C456.433 163.457 456.23 162.696 455.825 162.11C455.431 161.513 454.861 161.076 454.115 160.799C453.38 160.512 452.491 160.368 451.447 160.368H448.315V186H439.43ZM458.606 170.979L466.788 186H457.136L449.146 170.979H458.606ZM477.99 186H468.402L479.204 153.273H491.349L502.152 186H492.564L485.404 162.286H485.149L477.99 186ZM476.2 173.088H494.225V179.736H476.2V173.088ZM505.304 186V153.273H514.189V166.504H514.636L524.48 153.273H534.835L523.777 167.847L535.091 186H524.48L517.129 173.727L514.189 177.562V186H505.304ZM545.973 186H536.385L547.188 153.273H559.332L570.135 186H560.547L553.388 162.286H553.132L545.973 186ZM544.183 173.088H562.209V179.736H544.183V173.088ZM568.261 160.432V153.273H596.706V160.432H586.862V186H578.105V160.432H568.261Z" fill="#5D87FF"/>
<defs>
<clipPath id="clip0_1_2">
<rect width="216" height="216" fill="white" transform="translate(38 49)"/>
</clipPath>
</defs>
</svg>
